<?xml version="1.0" encoding="UTF-8"?><svg id="a" xmlns="http://www.w3.org/2000/svg" viewBox="0 0 354.55 453.2"><defs><style>.b{fill:#fce021;}.c{fill:gray;}.d{fill:#fff;stroke-miterlimit:10;stroke-width:.97px;}.d,.e{stroke:#000;}.e{fill:none;stroke-width:10.32px;}</style></defs><g><path d="M272.55,340.2c0,31.65,22,65,9,78-35.39,35.39-70.3,35-111,35s-61.56-10.62-90.75-34.27c-13.25-10.73,5.75-53.73,12.75-83.73,16.44-70.46,7.65-16,80-16s100-51.35,100,21Z"/><ellipse cx="188.05" cy="207.2" rx="166.5" ry="177"/><path class="b" d="M145.45,389.04c-.04,.25,.02,.3,.18,.45,.95,.61,.96,1.67,1.26,2.52,.24,.6,.08,1.31-.34,1.86-.94,1.1-1.89,2.11-2.89,3.06l-.28,.3c-1.55,1.96-3.52,3.61-4.95,5.77-1.66,2.61-3.57,5.17-5.7,7.53-.14,.15-.33,.35-.36,.8,1.32,.96,2.74,1.93,4.16,2.89,.05,.05,.11,.1,.15,.05,1.4-.2,2.03,1.07,3.03,1.73l.43,.41c1.11,.86,1.76,1.88,2.72,.81,1.17-1.31,1.34-3.03,2.23-4.47,2.85-4.51,4.81-9.46,7.35-14.2,.27-.55,.45-1.24,.69-1.89,.14-.45,.45-.89,.86-.86,.72,.1,1.17-.45,1.85-.11,.51,.34,.41,.89,.27,1.34-.24,1.17-.76,2.37-1.24,3.51-.24,.48-.48,.96-.62,1.41-.65,1.65-1.24,3.33-2.03,4.92-.75,1.68-1.58,3.16-2.2,4.92-.07,.14,0,.34,.31,.58,2.06-3.78,5.36-11.24,5.77-12.07,.79-1.58,.31,2.47-.28,3.64-1.13,2.61-2.3,5.12-3.26,7.74-.27,.55-1.27,2.2-1.48,2.79-1.13,2.44-2.47,4.78-3.4,7.32-.65,1.65-1.34,3.2-2.4,4.64-.27,.38-.21,.93-.34,1.38-.65,1.99-1.41,4.02-2.54,5.78l-.38,.76c-.31,1.65-1.13,3.13-1.82,4.68-.34,.86-.99,1.65-1.37,2.58-.27,.55-.89,.93-1.58,1.1-.62,.21-1.13,.55-1.54,1.03-.31,.28,.48,.75-.17,.86-.79,.21-1.54,.52-2.33,.38-.55-.1-1.06-.1-1.68-.07-.75-1.06-.58-2.09,.1-3.13,.17-.17,.38-.41,.38-.59,.55-2.13,1.68-4.06,2.64-5.98,.65-1.14,.89-2.48,1.55-3.61,.62-1.24,1.13-2.44,1.61-3.75,.24-.65,.48-1.48,1.37-1.72,.1-.03,.24-.31,.24-.31-.51-1.03,.31-1.65,.58-2.37,.1-.38-1.54-2.91-1.8-3.16-.48-.46-.96-.91-1.49-1.32-1.81-1.62-3.54-3.44-5.6-4.91-.16-.15-.37-.25-.58-.36-.64,.25-.86,.8-1.23,1.3-.52,.55-.78,1.26-1.56,1.66-.2,.1-.28,.3-.37,.5-.36,.7-.84,1.11-1.57,1.66-1.3,.95-1.97,1.65-2.87,2.61-.71,.75-1.08,1.36-1.84,2.06-.43,.35-1.25,1-1.43,1.4-.3,.86-1.14,1.2-1.6,1.91-.23,.35-.59,.3-.91,0-1.17-.91-3.6-1.98-3.16-3.09,.09-.2-.23-.4-.81-.1-.93,.45-1.83-.97-2.68-1.67,.07-.5,.3-.96,.63-1.31,1.33-1.4,2.45-2.91,3.67-4.32,.9-1.05,1.95-1.96,2.85-2.91,1.36-1.66,3.37-3.56,4.89-5.17,.47-.5,.37-.6-.03-1.26-.4-.76-1.19-1.31-1-2.27,.66,.15,1.29,.56,1.82,.87,.89,.46,1.28,.36,1.85-.34,1.92-2.46,3.81-4.57,6-6.78,3.08-3.26,6.22-6.47,9.3-9.83,.33-.35,.72-.65,.84-1.11,.21-.65,.75-1,1.33-1.3,.45-.15,.65-.15,.96,.05,.9,.76,1.76,1.57,1.83,2.78Z"/><path class="b" d="M164.96,414.37c-.12,.33-.64,.36-.78,.76,.57,.28,1.15,1.01,1.68,.01,.07-.2,.34-.02,.52-.04,2.23,.58,3.63,2.06,4.98,3.66,.07,.03,.18,.21,.13,.34,.12,1.31,.8,2.44,1.35,3.69,.58,1.4,.18,2.74,.2,4.09-.09,.71-.25,1.39-.42,2.08-.5,1.38-.63,2.89-.9,4.35-.3,1.3-.53,2.63-1.78,3.52-.46,.35-.85,.96-1.04,1.48-.47,1.54-1.52,2.57-2.79,3.52-1.07,.87-2.1,1.62-3.25,2.47-.9,.64-2.02,.46-3.1,.44-.78-1.55,.98-.84,1.34-1.37-.37-.36-.92-.26-1.26-.23-1.43,.23-2.88,.07-4.26,.17-1.13,.11-2.1-.24-2.95-1.14-1.27-1.35-2.4-2.88-3.36-4.41-1.08-1.88-1.51-3.96-1.41-6.08,.26-2.8,1.31-5.25,2.39-7.75,.88-2.43,2.41-4.55,4.06-6.56,1.85-2.08,3.95-3.47,7.05-3.46,.67,.02,1.3-.12,1.92-.2,.69-.05,1.21,.14,1.69,.68Zm-1.56,3.15c-.56,.84-1.36,1.44-1.92,2.28-.63,.81-1.31,1.53-1.54,2.64-.4,1.34-.68,2.8-1.38,4.03-.51,.93-.91,1.82-1.1,2.8-.26,.72-.47,1.54-.81,2.23-1.1,2.35-1.42,4.84-.69,7.48,.05,.32,0,.67,.5,.7,1.16,.05,1.12,.85,1.18,1.62,.72,.11,1.28-.06,1.55-.33,1.93-.93,3.15-2.43,4.01-4.12,1.27-2.59,2.4-5.23,3.45-7.89l1.85-5.57c.43-1.41,.28-2.87-.67-4.18-.5-.7-1.08-1.21-1.96-1.08-.86,.06-1.7-.17-2.47-.6Zm-5.16,27.48c.32,.04,.62-.07,.59-.46,.04-.36-.23-.3-.62-.37-.27,.05-.49-.03-.86,.28,.25,.24,.6,.44,.89,.55Z"/><path class="b" d="M200.29,428.16c-1.52-1.31-3.15-2.3-5.08-3.01-1.28-.55-2.8-.6-4.2-.77-1.81-.16-3.56-.27-5.31-.38,.41-.27,.35-.82,.7-.98,.76-.33,1.17-1.15,2.16-1.09,.23,.05,.47-.16,.47-.38,.06-.44,.47-.49,.76-.66,.58-.38,1.23-.71,1.81-1.09,1.46-.98,2.57-2.13,3.68-3.33,.88-.88,.99-2.02,1.23-3.12,.35-2.13-.64-3.66-2.74-4.37l-1.69-.55c-2.1-.77-4.32-.98-6.53-.77l-9.51,1.15c-.52,.05-1.05,.22-1.58,.27-.47,.11-.64,.44-.58,.82,.06,.38,.17,.71,.23,.98,.17,.38,.47,.66,.93,.49,.52-.22,1.11-.16,1.63-.16,.7,.11,.76,.16,.82,.88-.06,1.37-.06,2.79-.12,4.21,0,.6,.06,1.2-.18,1.8-.17,.77-.23,1.53-.17,2.24l.17,6.23c.06,2.35,.06,4.65,.06,7,0,1.91,.17,3.88-.41,5.79-.06,.22,0,.49-.06,.71l.88,5.47,.23,1.53c1.23-.05,1.4-1.2,2.16-1.59,.12,.11,.18,.22,.23,.27,.23,.6,.53,1.15,1.34,1.15,.29,.05,.35,.27,.41,.55,.06,.33,.18,.6,.29,.98,1.05-.66,1.87-1.26,2.86-1.8,1.87-1.09,3.56-2.51,5.31-3.83,.53-.33,1.05-.6,1.58-.98,1.34-1.04,2.57-2.19,3.68-3.55,1.28-1.53,2.86-2.84,3.85-4.76,.53-.98,1.05-1.91,1.28-3.01,.23-.88,.06-1.64-.58-2.35Zm-19.43-7.42c.34-2.62,.26-5.36,.34-7.98-.09-.55,.26-.66,.94-.77,1.8-.27,3.69-.44,5.14,.05,1.54,.44,3.08,.77,4.71,.77,1.37,.11,1.8,.6,1.03,1.37-2.31,2.19-4.2,4.48-7.63,6.12-.17,.05-.51,.16-.6,.27-.77,.98-2.31,1.31-4.03,1.75-.34-.6,0-1.09,.09-1.58Zm14.31,10.44c-.69,1.04-1.2,2.08-1.8,3.12-1.29,1.91-3.17,3.5-4.71,5.3-.17,.22-.51,.55-.69,.88-.17,.38-.6,.66-1.2,.77-1.71,.49-3,1.37-4.71,2.13-.43-1.2-.26-2.46-.43-3.66-.17-1.2-.43-2.46-.43-3.66s-.34-2.51-.26-3.77c-.09-1.2-.34-2.51-.09-3.72,.51-.16,1.2,0,1.54-.33-.09-.49-.94-.22-1.46-.49,1.63-.44,3.09-.55,4.54-.38,1.37,.27,2.66,.44,4.11,.38,.6-.11,1.37-.16,1.89,.44-2.31,.22-4.46-.05-6.69-.11q.77,.38,1.54,.44c2.06,0,4.11-.11,6.17,.27,.77,.11,1.46,.27,1.97,.66,1.29,.77,1.29,.93,.69,1.75Z"/><path class="b" d="M224.37,418.78c-.51-.18-.9-.51-1.48-.73-.84-.3-2.29-.06-2.7-.1-1.46-.1-2.74-.55-3.94-.39,.78-.78,2.4-3.21,2.51-4.11,.13-1.02,1.28-1.86,1.54-3.37,.14-.79,.1-1.29-.14-1.85-.45-1.06-.94-2.05-1.42-3.04-.18-.4-.42-.78-.79-1.06-1.54-1.28-3.36-1.85-3.79-1.6-.62,.37-1.3,.18-1.97,.05-1.27-.23-2.12-.25-3.35,.03-1.28,.29-2.47,.66-3.72,1.06-2.32,.84-3.76,1.76-5.51,3.52-.21,.24-.25,.48-.24,.71,.1,.32,.31,.42,.58,.39,.87-.16,1.09,.35,1.2,1.06,.1,.49,.24,.96,.32,1.4,.35,1.68,.58,3.35,1.09,4.98,.61,1.96,1.2,3.86,1.71,5.85,.95,3.43,2.19,6.84,3.15,10.28,.78,2.87,1.72,5.69,2.66,8.51,.18,.59,.44,1.22,.82,1.68,.6,.8,1.51,1.09,2.49,1.05,.06-.73,.38,.11,1.05-.18,.68-.23,1.11,.39,1.52-.16,.32-.47-.23-1.11,.65-2,.26-.27,.56-.25,1.12-.68,.56-.43,1.22-.53,1.74-.89,.2,.46-.02,.66-.27,.8-.23,.2-.47,.34-.72,.48-.18,.18-.6,.5-.48,.7,.14,.25,.71,.05,.9-.07,.64-.34,1.36-.64,1.85-1.29s.73-.96,1.51-1.23c.52-.18,1.01-.46,1.39-.89,.63-.74,1.37-1.47,1.82-2.39,.69-1.24,.02-1.01,.98-2.33,.48-.63,.76-1.72,1.01-2.39,.28-.91,.33-1.81,.37-2.75,.06-1.94,.04-3.79-.43-5.61-.47-1.64-1.4-2.95-3.03-3.46Zm-8.45-11.77c1.13,.56,1.43,1.32,.69,2.19,.04-.87-.13-1.62-.69-2.19Zm-9.32,9.29c-.35-2.38-.94-4.01-1.44-6.34-.12-.64-.35-1.36-.84-1.93-.34-.34-.69-.46-1.31-.43-.46,.03-.92,.07-1.26,.51-.39,.52-.57-.05-.9-.11,1.09-.8,2.34-1.08,3.57-1.41,1.5-.47,3.01-.9,4.57-1.16,1.78-.28,3.81-.03,5.74,.42,.5,.12,.53,.45,.57,.83-.55,.23-.5-.35-.83-.18-.12,.1-.09,.2,0,.23,.49,.57,.97,1.09,.98,1.88,0,.96,.25,3.01-.7,4.17-1.23,1.53-2.28,3.91-4.58,5.34-.59,.36-1.79,1.83-2.61,2.22-.58-.84-.82-3.38-.94-4.02Zm18.14,8.98c-.04,1.35-.86,2.68-1.75,4.03-.94,1.25-2.94,3.04-3.18,4.12-.02,.24-.35,.41,.06,.51,.52-.18,1.05-1.53,2.63-2.24-.7,1.12-1.89,2.17-2.62,2.59-.81,.45-1.58,1.07-2.24,1.7-1.03,1-2.41,1.82-3.85,2.78-.48-2.14-1.2-4.14-1.73-6.15-.48-2.13-2.06-6.89-2.78-8.87-.22-.69,.08-.67,1-1.09,1.51-.67,2.25-1.38,2.85-1.58,.26-.09,1.78-.7,1.94-.81,.83-.39,1.38-.16,1.96-.12,.77,.04,1.77,.17,2.48,.34,2.22,.72,3.71,.63,4.5,2.23,.44,.78,.62,1.65,.72,2.55Z"/><path class="b" d="M238.68,402.31c1.47,.44,2.52,1.29,2.98,2.75l.21,.34c1.25,1.29,1.81,2.44,2.55,4.12,.18,.53,.68,.85,.96,1.31,1.26,1.91,2.61,3.85,3.71,5.87,.46,.74,.97,2.17,1.38,2.95,.3,.61,.96,1.31,1.48,1.78,.88-.39,1.2-.98,1.49-1.95,1.42-1.83,1.99-5.75,2.56-6.89,.48,.65,.7,1.62,.57,2.98-.15,.97-.96,3.29-1.21,4.23-.35,1.25-1,2.75-1.56,3.9-.55,1.29-1.4,2.22-3.01,3.13-.54,.34-1.13-.01-1.65-.25-.59-.35-1.02-.56-1.59-.76-.27,.17-.33,.44-.33,.68s.01,.63-.15,.73c-.67,.49-.48,1.17-1.02,1.98-.6,.85-1.14,.7-1.92,1.27-.32,.2-.45,.6,.09,.26,1.25-.77,.07,.59-1.63,1.48-.79,.41-2.7,.96-3.49,.66-2.19-.87-2.7-1.1-3.61-2.44l-1.49-2.17c-1.49-2.17-1.63-4.22-1.49-6.05,.13-2.22,.95-3.92,2.46-5.48,.69-.82,1.54-1.51,2.07-2.47,.42-.66,1.23-.44,1.74-1.07-.74-1.68-2.69-4.35-3.76-5.83-.57-.92-.98-.98-1.58-.13-1.2,1.69-2.14,2.59-3.9,3.76-.13,.16-.38,.24-.42,.42-.59,1.47-2,.76-2.9,1.24-.3-.37-.14-.47-.03-.54,1.16-1.27,2.22-2.72,3.07-3.4,1.09-.91,1.65-2.05,2.54-3.16,.44-.51,.58-.76,1.05-1.21,.62-.46,1.23-.68,1.98-.67,.72-.05,1.46,.05,2.07-.41-.09-.5-.36-.33-.82-.36-.47,.21-.9,0-.52-.23,.81-.5,2.16-.63,3.15-.36Zm-.81,28.86c.52,0,.91,.38,1.38,.41,.52,0,1.04,.47,1.71-.03-1.06-.38-2.04-.64-2.92-1.2-.25-.16-1.18-.7-.68,.11,.18,.29,.08,.74,.52,.71Zm1.38-15.59c-.04,.42,.01,.63-.26,.79-.16,.1-.31,.11-.45,.6-.26,.79-.21,1-.5,1.74s-.41,1.52-.24,2.29c.58,3.12,2.64,5.97,3.95,6.27,.95,.2,1.6,.52,2.12-.2,.38-.47,1.11-1.96,1.5-2.43,.25-.32,.06-.75-.19-1.15-.18-.29-.44-.6-.64-1.03-.53-1.1-1.53-1.75-2.38-3.6-.39-.87-1.03-1.42-1.36-2.32-.26-.79-.58-1.06-1.04-1.81-.18,.19-.51,.63-.51,.87Z"/><path class="c" d="M80.08,406.83l13.48-54.62,58,23-58.13,40.77c-6.54,4.58-15.26-1.39-13.35-9.14Z"/><path class="c" d="M280.29,406.83l-13.48-54.62-58,23,58.13,40.77c6.54,4.58,15.26-1.39,13.35-9.14Z"/><path class="c" d="M158.55,357.2h46v23.29c0,12.53-10.18,22.71-22.71,22.71h-23.29v-46h0Z" transform="translate(290.57 -26.78) rotate(40.52)"/><g><g><path d="M354.55,206.95c0-97.91-109-292.74-226-164.74C62.5,114.47,0,109.04,0,206.95c0,97.91,79.37,177.28,177.28,177.28,97.91,0,177.28-79.37,177.28-177.28Z"/><path d="M354.55,206.95c0-97.91-109-292.74-226-164.74C62.5,114.47,0,109.04,0,206.95c0,97.91,79.37,177.28,177.28,177.28,97.91,0,177.28-79.37,177.28-177.28Z"/></g><path class="d" d="M331.84,226.56c0-85.65-11.79-96.86-89.79-78.86-83.46,19.26-220.37-6.79-220.37,78.86,0,85.65,69.43,155.08,155.08,155.08,85.65,0,155.08-69.43,155.08-155.08Z"/><g><path d="M138.59,241.01c0,5.55-1.7,10.09-5.1,13.61-3.4,3.52-7.87,5.28-13.39,5.28s-10.02-1.76-13.48-5.28c-3.46-3.52-5.19-8.04-5.19-13.57s1.7-10.04,5.1-13.57c3.4-3.52,7.88-5.28,13.43-5.28s10.04,1.75,13.48,5.24c3.43,3.49,5.15,8.02,5.15,13.57Zm-30.45,6.28c0,1.61,.36,2.92,1.07,3.93,.71,1.01,1.64,1.52,2.77,1.52s2.04-.54,2.72-1.63c.68-1.09,1.02-2.37,1.02-3.87s-.35-2.78-1.04-3.87c-.69-1.09-1.6-1.63-2.72-1.63s-2.04,.52-2.75,1.56c-.72,1.04-1.07,2.37-1.07,3.97Z"/><path d="M199.99,209.31h7.06c6.35,0,9.53,2.88,9.53,8.64,0,2.83-.93,4.89-2.77,6.18,1.68,.28,2.99,1.17,3.95,2.67,.96,1.5,1.44,3.26,1.44,5.29,0,2.97-.93,5.21-2.8,6.73-1.87,1.52-4.32,2.28-7.36,2.28h-9.05v-31.78Zm6.43,11.28h1.2c1.5,0,2.25-.77,2.25-2.3,0-1.64-.74-2.46-2.22-2.46h.02l-1.25,4.76Zm1.36,14.21h.54c2.47,0,3.71-1.05,3.71-3.14,0-1.88-1.3-2.83-3.9-2.83h-1.6l1.25,5.97Z"/><path d="M196.89,241.09h-8.51c-3.04,0-5.49-.76-7.36-2.28-1.87-1.52-2.8-3.76-2.8-6.73,0-2.02,.48-3.79,1.44-5.29,.96-1.5,2.28-2.39,3.95-2.67-1.85-1.29-2.77-3.35-2.77-6.18,0-5.76,3.18-8.64,9.53-8.64h6.52v31.78Zm-7.14-25.26h.02c-1.48,0-2.22,.82-2.22,2.46,0,1.54,.75,2.3,2.25,2.3h1.2l-1.25-4.76Zm1.15,13.01h-1.6c-2.6,0-3.9,.94-3.9,2.83,0,2.09,1.24,3.14,3.71,3.14h.54l1.25-5.97Z"/><path d="M260.26,250.01c-2.06,6.79-3.1,7.23-3.1,7.23l-4.67-1.89c-2.47,2.88-6.15,4.33-11.03,4.33s-8.78-1.88-11.7-5.65c-2.91-3.77-4.37-8.18-4.37-13.24s1.49-9.37,4.46-12.93c2.97-3.56,6.78-5.34,11.43-5.34,4.94,0,5.56,.07,10.72,3.76,5.16,3.69,10.32,16.96,8.26,23.75Zm-17.55-3.55c0-1.67-.48-3.05-1.45-4.13-.97-1.08-2.21-1.62-3.72-1.62s-2.75,.52-3.7,1.57c-.95,1.05-1.43,2.44-1.43,4.17s.48,3.13,1.45,4.2c.97,1.06,2.22,1.6,3.74,1.6s2.76-.52,3.7-1.55c.94-1.03,1.4-2.45,1.4-4.24Z"/><path class="e" d="M215.47,200.69h0c0-5.33,4.32-9.65,9.65-9.65h84.98c5.33,0,9.65,4.32,9.65,9.65v63.52c0,5.33-4.32,9.65-9.65,9.65h-84.98c-5.33,0-9.65-4.32-9.65-9.65v-12.22c0-5.33-4.32-9.65-9.65-9.65h-14.95c-5.33,0-9.65,4.32-9.65,9.65v12.22c0,5.33-4.32,9.65-9.65,9.65H72.33c-5.33,0-9.65-4.32-9.65-9.65v-63.52c0-5.33,4.32-9.65,9.65-9.65h99.26c5.33,0,9.65,4.32,9.65,9.65h0c0,5.33,4.32,9.65,9.65,9.65h14.95c5.33,0,9.65-4.32,9.65-9.65Z"/></g><path d="M281.55,301.63c0,31.93-46.92,57.82-104.79,57.82s-104.79-25.88-104.79-57.82,42.27,0,100.14,0,109.44-31.93,109.44,0Z"/></g></g><g><path class="c" d="M218.55,30.2c24.46,30.56,17.19,77-10.92,102.76-4.01,3.31-8.61,7.27-14.08,7.25,6.79-1.38,13.16-9.7,17.18-15.04,20.28-28.51,24.32-63.59,7.82-94.96h0Z"/><path class="c" d="M248.05,44.7c23.91,31.27,4.92,65.06-24.42,83.75-4.57,2.97-9.39,5.55-14.38,7.72-4.99,2-10.24,4.15-15.69,4.04,5.25-.97,9.99-3.67,14.6-6.24,4.61-2.62,9.02-5.57,13.25-8.72,27.18-20.65,43.93-47.23,26.65-80.54h0Z"/><path class="c" d="M194.05,44.7c18.87,23.15,30.73,62.95,11.22,89-2.92,3.38-7.01,6.88-11.72,6.5,4.44-.76,7.45-4.37,9.74-7.94,6.64-11.21,7.69-24.77,6.62-37.55-1.64-17.56-8.18-34.1-15.85-50.01h0Z"/></g></svg>